<svg width="20" height="24" viewBox="0 0 20 24" fill="none" xmlns="http://www.w3.org/2000/svg">
<path d="M11.2302 21.9131C11.2235 21.9173 11.2169 21.9215 11.2103 21.9259L9.58928 23.0124C8.58604 23.6499 7.14535 22.9338 7.14535 21.5791V15.1538C7.14535 14.6067 6.99889 14.027 6.80488 13.5213C6.60954 13.0122 6.34428 12.5217 6.06013 12.1514C6.04728 12.1347 6.03372 12.1185 6.01949 12.1029L1.60089 7.25362L1.58778 7.23961C1.37438 7.01712 1.15748 6.67532 0.994243 6.29567C0.828638 5.91051 0.75 5.5605 0.75 5.33415V2.54585C0.75 1.45089 1.51311 0.75 2.32558 0.75H17.6744C18.5101 0.75 19.25 1.47551 19.25 2.42462V5.09169C19.25 5.44095 19.1413 5.88174 18.9491 6.32249C18.7618 6.75214 18.5225 7.11931 18.3105 7.34548L13.3364 11.9284C12.8772 12.3307 12.5308 12.8934 12.2995 13.4619C12.065 14.0382 11.9244 14.6797 11.9244 15.2751V20.488C11.9244 20.7088 11.8485 21.0183 11.698 21.3201C11.5443 21.6283 11.362 21.8306 11.2302 21.9131Z" stroke="#292D32" stroke-width="1.5" stroke-miterlimit="10" stroke-linecap="round" stroke-linejoin="round"/>
</svg>
