<svg width="24" height="24" viewBox="0 0 24 24" fill="none" xmlns="http://www.w3.org/2000/svg">
<path d="M18.2744 13.5295C17.8535 13.9403 17.6129 14.5316 17.6731 15.163C17.7633 16.2454 18.7554 17.0371 19.8378 17.0371H21.7419V18.2297C21.7419 20.3042 20.0483 21.9979 17.9737 21.9979H7.84165C8.15233 21.7374 8.42291 21.4167 8.63337 21.0559C9.00418 20.4546 9.21464 19.743 9.21464 18.9914C9.21464 16.7765 7.42073 14.9826 5.2059 14.9826C4.26385 14.9826 3.39195 15.3134 2.70044 15.8646V11.485C2.70044 9.4105 4.39413 7.7168 6.46865 7.7168H17.9737C20.0483 7.7168 21.7419 9.4105 21.7419 11.485V12.9282H19.7175C19.1563 12.9282 18.6452 13.1486 18.2744 13.5295Z" stroke="#292D32" stroke-width="1.5" stroke-linecap="round" stroke-linejoin="round"/>
<path d="M2.70044 12.387V7.80711C2.70044 6.61451 3.43203 5.55215 4.54445 5.13123L12.5018 2.12468C13.7445 1.65365 15.0774 2.57569 15.0774 3.90859V7.71688" stroke="#292D32" stroke-width="1.5" stroke-linecap="round" stroke-linejoin="round"/>
<path d="M22.8029 13.9507V16.0152C22.8029 16.5664 22.362 17.0174 21.8007 17.0374H19.8365C18.7541 17.0374 17.7619 16.2457 17.6717 15.1633C17.6116 14.5319 17.8521 13.9406 18.273 13.5298C18.6439 13.1489 19.155 12.9285 19.7162 12.9285H21.8007C22.362 12.9485 22.8029 13.3995 22.8029 13.9507Z" stroke="#292D32" stroke-width="1.5" stroke-linecap="round" stroke-linejoin="round"/>
<path d="M7.21021 11.9761H14.2255" stroke="#292D32" stroke-width="1.5" stroke-linecap="round" stroke-linejoin="round"/>
<path d="M9.21449 18.9914C9.21449 19.743 9.00403 20.4546 8.63323 21.0559C8.42277 21.4167 8.15218 21.7374 7.84151 21.998C7.13998 22.6293 6.21796 23.0001 5.20576 23.0001C3.74257 23.0001 2.4698 22.2184 1.77829 21.0559C1.40748 20.4546 1.19702 19.743 1.19702 18.9914C1.19702 17.7287 1.77829 16.5962 2.7003 15.8646C3.3918 15.3134 4.2637 14.9827 5.20576 14.9827C7.42059 14.9827 9.21449 16.7766 9.21449 18.9914Z" stroke="#292D32" stroke-width="1.5" stroke-miterlimit="10" stroke-linecap="round" stroke-linejoin="round"/>
<path d="M3.6438 18.9912L4.63595 19.9833L6.77061 18.009" stroke="#292D32" stroke-width="1.5" stroke-linecap="round" stroke-linejoin="round"/>
</svg>
