<svg width="24" height="24" viewBox="0 0 24 24" fill="none" xmlns="http://www.w3.org/2000/svg">
<path d="M2.12793 11.1255V16.159C2.12793 21.1926 4.14584 23.2105 9.17939 23.2105H15.2219C20.2555 23.2105 22.2734 21.1926 22.2734 16.159V11.1255" stroke="#292D32" stroke-width="1.5" stroke-linecap="round" stroke-linejoin="round"/>
<path d="M12.2062 11.9999C14.2577 11.9999 15.7712 10.3295 15.5694 8.27798L14.8295 0.789307H9.59411L8.843 8.27798C8.64121 10.3295 10.1546 11.9999 12.2062 11.9999Z" stroke="#292D32" stroke-width="1.5" stroke-linecap="round" stroke-linejoin="round"/>
<path d="M19.2801 11.9999C21.5447 11.9999 23.2038 10.1614 22.9796 7.90803L22.6657 4.82512C22.2621 1.91037 21.1411 0.789307 18.2039 0.789307H14.7847L15.5694 8.64793C15.76 10.4977 17.4304 11.9999 19.2801 11.9999Z" stroke="#292D32" stroke-width="1.5" stroke-linecap="round" stroke-linejoin="round"/>
<path d="M5.07624 11.9999C6.92599 11.9999 8.59636 10.4977 8.77573 8.64793L9.02237 6.17039L9.56048 0.789307H6.14124C3.20407 0.789307 2.08301 1.91037 1.67943 4.82512L1.37674 7.90803C1.15253 10.1614 2.8117 11.9999 5.07624 11.9999Z" stroke="#292D32" stroke-width="1.5" stroke-linecap="round" stroke-linejoin="round"/>
<path d="M12.2062 17.6052C10.334 17.6052 9.40356 18.5357 9.40356 20.4079V23.2105H15.0089V20.4079C15.0089 18.5357 14.0784 17.6052 12.2062 17.6052Z" stroke="#292D32" stroke-width="1.5" stroke-linecap="round" stroke-linejoin="round"/>
</svg>
