<?xml version="1.0" encoding="iso-8859-1"?>
<!-- Generator: Adobe Illustrator 17.1.0, SVG Export Plug-In . SVG Version: 6.00 Build 0)  -->
<!DOCTYPE svg PUBLIC "-//W3C//DTD SVG 1.1//EN" "http://www.w3.org/Graphics/SVG/1.1/DTD/svg11.dtd">
<svg width="24" height="24" version="1.1" id="Capa_1" xmlns="http://www.w3.org/2000/svg" xmlns:xlink="http://www.w3.org/1999/xlink" x="0px" y="0px"
	 viewBox="0 0 435 435" style="enable-background:new 0 0 435 435;" xml:space="preserve">
<g>
	<path d="M137.5,50c-4.142,0-7.5,3.358-7.5,7.5v230c0,4.142,3.358,7.5,7.5,7.5s7.5-3.358,7.5-7.5v-230
		C145,53.358,141.642,50,137.5,50z"/>
	<path d="M177.5,200c-4.142,0-7.5,3.358-7.5,7.5v80c0,4.142,3.358,7.5,7.5,7.5s7.5-3.358,7.5-7.5v-80
		C185,203.358,181.642,200,177.5,200z"/>
	<path d="M217.5,200c-4.142,0-7.5,3.358-7.5,7.5v80c0,4.142,3.358,7.5,7.5,7.5c4.143,0,7.5-3.358,7.5-7.5v-80
		C225,203.358,221.643,200,217.5,200z"/>
	<path d="M257.5,200c-4.143,0-7.5,3.358-7.5,7.5v80c0,4.142,3.357,7.5,7.5,7.5s7.5-3.358,7.5-7.5v-80
		C265,203.358,261.643,200,257.5,200z"/>
	<path d="M297.5,50h-80c-4.142,0-7.5,3.358-7.5,7.5s3.358,7.5,7.5,7.5H290v105H185V65h2.5c4.142,0,7.5-3.358,7.5-7.5
		s-3.358-7.5-7.5-7.5h-10c-4.142,0-7.5,3.358-7.5,7.5v120c0,4.142,3.358,7.5,7.5,7.5h120c4.143,0,7.5-3.358,7.5-7.5v-120
		C305,53.358,301.643,50,297.5,50z"/>
	<path d="M297.5,200c-4.143,0-7.5,3.358-7.5,7.5v80c0,4.142,3.357,7.5,7.5,7.5s7.5-3.358,7.5-7.5v-80
		C305,203.358,301.643,200,297.5,200z"/>
	<path d="M337.5,50c-4.143,0-7.5,3.358-7.5,7.5v230c0,4.142,3.357,7.5,7.5,7.5s7.5-3.358,7.5-7.5v-230
		C345,53.358,341.643,50,337.5,50z"/>
	<path d="M342.5,0h-255C83.358,0,80,3.358,80,7.5V30H70c-16.542,0-30,13.458-30,30v345c0,16.542,13.458,30,30,30h272.5
		c28.948,0,52.5-23.551,52.5-52.5v-330C395,23.551,371.448,0,342.5,0z M342.5,420H70c-8.271,0-15-6.729-15-15s6.729-15,15-15h267.5
		c4.143,0,7.5-3.358,7.5-7.5v-15c0-4.142-3.357-7.5-7.5-7.5s-7.5,3.358-7.5,7.5v7.5H70c-5.462,0-10.584,1.475-15,4.036V60
		c0-8.271,6.729-15,15-15h10v292.5c0,4.142,3.358,7.5,7.5,7.5h255c20.678,0,37.5,16.822,37.5,37.5S363.178,420,342.5,420z
		 M380,345.793C370.464,336.052,357.176,330,342.5,330H95V15h247.5c20.678,0,37.5,16.822,37.5,37.5V345.793z"/>
</g>
<g>
</g>
<g>
</g>
<g>
</g>
<g>
</g>
<g>
</g>
<g>
</g>
<g>
</g>
<g>
</g>
<g>
</g>
<g>
</g>
<g>
</g>
<g>
</g>
<g>
</g>
<g>
</g>
<g>
</g>
</svg>
