<svg width="24" height="24" viewBox="0 0 24 24" fill="none" xmlns="http://www.w3.org/2000/svg">
<path d="M8.49103 1L4.50903 4.993" stroke="#292D32" stroke-width="1.5" stroke-miterlimit="10" stroke-linecap="round" stroke-linejoin="round"/>
<path d="M15.509 1L19.491 4.993" stroke="#292D32" stroke-width="1.5" stroke-miterlimit="10" stroke-linecap="round" stroke-linejoin="round"/>
<path d="M1 7.43499C1 5.39999 2.089 5.23499 3.442 5.23499H20.558C21.911 5.23499 23 5.39999 23 7.43499C23 9.79999 21.911 9.63499 20.558 9.63499H3.442C2.089 9.63499 1 9.79999 1 7.43499Z" stroke="#292D32" stroke-width="1.5"/>
<path d="M9.53613 14.2001V18.1051" stroke="#292D32" stroke-width="1.5" stroke-linecap="round"/>
<path d="M14.5959 14.2001V18.1051" stroke="#292D32" stroke-width="1.5" stroke-linecap="round"/>
<path d="M2.6499 9.7999L4.2009 19.3039C4.5529 21.4379 5.3999 22.9999 8.5459 22.9999H15.1789C18.5999 22.9999 19.1059 21.5039 19.5019 19.4359L21.3499 9.7999" stroke="#292D32" stroke-width="1.5" stroke-linecap="round"/>
</svg>
