<svg width="18" height="18" viewBox="0 0 18 18" fill="none" xmlns="http://www.w3.org/2000/svg">
<path d="M12.743 5.4C12.743 8.10316 10.944 10.05 9.00008 10.05C7.05617 10.05 5.2572 8.10316 5.2572 5.4C5.2572 2.69683 7.05617 0.75 9.00008 0.75C10.944 0.75 12.743 2.69683 12.743 5.4Z" stroke="#292D32" stroke-width="1.5"/>
<path d="M4.79148 12.394L4.81766 12.3833L4.84295 12.3706C5.1043 12.2397 5.46778 12.2575 5.79596 12.3772C6.78554 12.9603 7.80059 13.26 9 13.26C10.2227 13.26 11.2539 12.9485 12.2618 12.3429C12.459 12.2243 12.8325 12.1862 13.2332 12.3142C15.0579 13.0678 16.4234 14.2994 17.135 15.725C17.4784 16.4129 16.9736 17.25 16.0988 17.25H1.90125C1.48112 17.25 1.12332 17.0395 0.921686 16.7501C0.726319 16.4696 0.689607 16.1419 0.854538 15.8351L0.859913 15.8251L0.864983 15.815C1.57986 14.383 2.95442 13.1467 4.79148 12.394Z" stroke="#292D32" stroke-width="1.5"/>
</svg>
