<svg width="18" height="18" viewBox="0 0 18 18" fill="none" xmlns="http://www.w3.org/2000/svg">
<path d="M17.1686 1.62896H17.1685L17.1686 1.63909L17.25 7.66031C17.2489 7.8612 17.1693 8.07774 16.981 8.26605L8.26605 16.981C7.90736 17.3397 7.32341 17.3397 6.96472 16.981L1.01902 11.0353C0.660327 10.6766 0.660327 10.0926 1.01902 9.73395L9.73395 1.01902C9.92358 0.82939 10.1418 0.75 10.3439 0.75H16.2896C16.7713 0.75 17.1686 1.14725 17.1686 1.62896ZM10.6527 4.96833C10.6527 6.27847 11.7215 7.34729 13.0317 7.34729C14.3418 7.34729 15.4106 6.27847 15.4106 4.96833C15.4106 3.65818 14.3418 2.58937 13.0317 2.58937C11.7215 2.58937 10.6527 3.65818 10.6527 4.96833Z" stroke="#292D32" stroke-width="1.5"/>
</svg>
