<svg width="18" height="18" viewBox="0 0 18 18" fill="none" xmlns="http://www.w3.org/2000/svg">
<path d="M12.7431 5.4C12.7431 8.10316 10.9441 10.05 9.00021 10.05C7.05629 10.05 5.25732 8.10316 5.25732 5.4C5.25732 2.69683 7.05629 0.75 9.00021 0.75C10.9441 0.75 12.7431 2.69683 12.7431 5.4Z" stroke="#FFFFFF" stroke-width="1.5" stroke-opacity="0.5"/>
<path d="M4.79148 12.3941L4.81766 12.3833L4.84295 12.3707C5.1043 12.2398 5.46778 12.2576 5.79596 12.3773C6.78554 12.9604 7.80059 13.2601 9 13.2601C10.2227 13.2601 11.2539 12.9486 12.2618 12.3429C12.459 12.2244 12.8325 12.1863 13.2332 12.3142C15.0579 13.0679 16.4234 14.2995 17.135 15.7251C17.4784 16.413 16.9736 17.2501 16.0988 17.2501H1.90125C1.48112 17.2501 1.12332 17.0396 0.921686 16.7501C0.726319 16.4697 0.689607 16.142 0.854538 15.8352L0.859913 15.8252L0.864983 15.8151C1.57986 14.383 2.95442 13.1468 4.79148 12.3941Z" stroke="#FFFFFF" stroke-width="1.5" stroke-opacity="0.5"/>
</svg>
