<svg width="24" height="24" viewBox="0 0 24 24" fill="none" xmlns="http://www.w3.org/2000/svg">
<path d="M11.9998 14.2H13.0998C14.3098 14.2 15.2998 13.21 15.2998 12V1H5.39978C3.74978 1 2.30879 1.91299 1.56079 3.25499" stroke="#292D32" stroke-width="1.5" stroke-linecap="round" stroke-linejoin="round"/>
<path d="M1 17.4998C1 19.3258 2.474 20.7998 4.3 20.7998H5.4C5.4 19.5898 6.39 18.5998 7.6 18.5998C8.81 18.5998 9.8 19.5898 9.8 20.7998H14.2C14.2 19.5898 15.19 18.5998 16.4 18.5998C17.61 18.5998 18.6 19.5898 18.6 20.7998H19.7C21.526 20.7998 23 19.3258 23 17.4998V14.1998H19.7C19.095 14.1998 18.6 13.7048 18.6 13.0998V9.7998C18.6 9.1948 19.095 8.6998 19.7 8.6998H21.119L19.238 5.41082C18.842 4.72882 18.116 4.2998 17.324 4.2998H15.3V11.9998C15.3 13.2098 14.31 14.1998 13.1 14.1998H12" stroke="#292D32" stroke-width="1.5" stroke-linecap="round" stroke-linejoin="round"/>
<path d="M7.5999 23.0001C8.81493 23.0001 9.7999 22.0151 9.7999 20.8001C9.7999 19.5851 8.81493 18.6001 7.5999 18.6001C6.38488 18.6001 5.3999 19.5851 5.3999 20.8001C5.3999 22.0151 6.38488 23.0001 7.5999 23.0001Z" stroke="#292D32" stroke-width="1.5" stroke-linecap="round" stroke-linejoin="round"/>
<path d="M16.4002 23.0001C17.6152 23.0001 18.6002 22.0151 18.6002 20.8001C18.6002 19.5851 17.6152 18.6001 16.4002 18.6001C15.1852 18.6001 14.2002 19.5851 14.2002 20.8001C14.2002 22.0151 15.1852 23.0001 16.4002 23.0001Z" stroke="#292D32" stroke-width="1.5" stroke-linecap="round" stroke-linejoin="round"/>
<path d="M23.0001 12.0002V14.2002H19.7001C19.0951 14.2002 18.6001 13.7052 18.6001 13.1002V9.8002C18.6001 9.1952 19.0951 8.7002 19.7001 8.7002H21.1191L23.0001 12.0002Z" stroke="#292D32" stroke-width="1.5" stroke-linecap="round" stroke-linejoin="round"/>
<path d="M1 7.6001H7.6" stroke="#292D32" stroke-width="1.5" stroke-linecap="round" stroke-linejoin="round"/>
<path d="M1 10.8999H5.4" stroke="#292D32" stroke-width="1.5" stroke-linecap="round" stroke-linejoin="round"/>
<path d="M1 14.2002H3.2" stroke="#292D32" stroke-width="1.5" stroke-linecap="round" stroke-linejoin="round"/>
</svg>
