<svg width="24" height="24" viewBox="0 0 24 24" fill="none" xmlns="http://www.w3.org/2000/svg">
<path d="M22.9685 18.963C22.9685 19.359 22.8805 19.766 22.6935 20.162C22.5065 20.558 22.2645 20.932 21.9455 21.284C21.4065 21.878 20.8125 22.307 20.1415 22.582C19.4815 22.857 18.7665 23 17.9965 23C16.8745 23 15.6755 22.736 14.4105 22.197C13.1455 21.658 11.8805 20.932 10.6265 20.019C9.36147 19.095 8.16247 18.072 7.01847 16.939C5.88547 15.795 4.86247 14.596 3.94947 13.342C3.04746 12.088 2.32147 10.834 1.79346 9.591C1.26546 8.337 1.00146 7.138 1.00146 5.994C1.00146 5.246 1.13346 4.531 1.39746 3.871C1.66146 3.2 2.07947 2.584 2.66247 2.034C3.36647 1.341 4.13647 1 4.95047 1C5.25847 1 5.56647 1.066 5.84147 1.198C6.12747 1.33 6.38047 1.528 6.57847 1.814L9.13047 5.411C9.32847 5.686 9.47147 5.939 9.57047 6.181C9.66947 6.412 9.72447 6.643 9.72447 6.852C9.72447 7.116 9.64747 7.38 9.49347 7.633C9.35047 7.886 9.14147 8.15 8.87747 8.414L8.04147 9.283C7.92047 9.404 7.86547 9.547 7.86547 9.723C7.86547 9.811 7.87647 9.888 7.89847 9.976C7.93147 10.064 7.96447 10.13 7.98647 10.196C8.18447 10.559 8.52547 11.032 9.00947 11.604C9.50447 12.176 10.0325 12.759 10.6045 13.342C11.1985 13.925 11.7705 14.464 12.3535 14.959C12.9255 15.443 13.3985 15.773 13.7725 15.971C13.8275 15.993 13.8935 16.026 13.9705 16.059C14.0585 16.092 14.1465 16.103 14.2455 16.103C14.4325 16.103 14.5755 16.037 14.6965 15.916L15.5325 15.091C15.8075 14.816 16.0715 14.607 16.3245 14.475C16.5775 14.321 16.8305 14.244 17.1055 14.244C17.3145 14.244 17.5345 14.288 17.7765 14.387C18.0185 14.486 18.2715 14.629 18.5465 14.816L22.1875 17.401C22.4735 17.599 22.6715 17.83 22.7925 18.105C22.9025 18.38 22.9685 18.655 22.9685 18.963Z" stroke="#292D32" stroke-width="1.5" stroke-miterlimit="10"/>
</svg>
